<svg xmlns="http://www.w3.org/2000/svg" viewBox="0 0 512 512"><rect width="512" height="512" rx="120" fill="#1e3355"/><rect x="180" y="96" width="14" height="40" rx="7" fill="#8db8ff"/><rect x="180" y="376" width="14" height="40" rx="7" fill="#8db8ff"/><rect x="226" y="96" width="14" height="40" rx="7" fill="#8db8ff"/><rect x="226" y="376" width="14" height="40" rx="7" fill="#8db8ff"/><rect x="272" y="96" width="14" height="40" rx="7" fill="#8db8ff"/><rect x="272" y="376" width="14" height="40" rx="7" fill="#8db8ff"/><rect x="318" y="96" width="14" height="40" rx="7" fill="#8db8ff"/><rect x="318" y="376" width="14" height="40" rx="7" fill="#8db8ff"/><rect x="96" y="180" width="40" height="14" rx="7" fill="#8db8ff"/><rect x="376" y="180" width="40" height="14" rx="7" fill="#8db8ff"/><rect x="96" y="226" width="40" height="14" rx="7" fill="#8db8ff"/><rect x="376" y="226" width="40" height="14" rx="7" fill="#8db8ff"/><rect x="96" y="272" width="40" height="14" rx="7" fill="#8db8ff"/><rect x="376" y="272" width="40" height="14" rx="7" fill="#8db8ff"/><rect x="96" y="318" width="40" height="14" rx="7" fill="#8db8ff"/><rect x="376" y="318" width="40" height="14" rx="7" fill="#8db8ff"/><rect x="136" y="136" width="240" height="240" rx="36" fill="#1c3156" stroke="#3b82f6" stroke-width="14"/><path d="M276 170 L210 266 H256 L236 342 L306 240 H260Z" fill="#f5b54a"/></svg>