<svg xmlns="http://www.w3.org/2000/svg" viewBox="0 0 24 24" width="24" height="24"><title>技術：什麼時候進場</title><path d="M5.50 10.50L5.50 13.00" fill="none" stroke="currentColor" stroke-width="1.750" stroke-linecap="round" stroke-linejoin="round"/><path d="M5.50 18.00L5.50 20.50" fill="none" stroke="currentColor" stroke-width="1.750" stroke-linecap="round" stroke-linejoin="round"/><path d="M4.00 13.00L7.00 13.00C7.41 13.00 7.75 13.34 7.75 13.75L7.75 17.25C7.75 17.66 7.41 18.00 7.00 18.00L4.00 18.00C3.59 18.00 3.25 17.66 3.25 17.25L3.25 13.75C3.25 13.34 3.59 13.00 4.00 13.00Z" fill="none" stroke="currentColor" stroke-width="1.750" stroke-linecap="round" stroke-linejoin="round"/><path d="M12.00 7.00L12.00 9.00" fill="none" stroke="currentColor" stroke-width="1.750" stroke-linecap="round" stroke-linejoin="round"/><path d="M12.00 13.50L12.00 16.50" fill="none" stroke="currentColor" stroke-width="1.750" stroke-linecap="round" stroke-linejoin="round"/><path d="M10.50 9.00L13.50 9.00C13.91 9.00 14.25 9.34 14.25 9.75L14.25 12.75C14.25 13.16 13.91 13.50 13.50 13.50L10.50 13.50C10.09 13.50 9.75 13.16 9.75 12.75L9.75 9.75C9.75 9.34 10.09 9.00 10.50 9.00Z" fill="currentColor" stroke="currentColor" stroke-width="1.750" stroke-linecap="round" stroke-linejoin="round"/><path d="M18.50 3.50L18.50 5.50" fill="none" stroke="currentColor" stroke-width="1.750" stroke-linecap="round" stroke-linejoin="round"/><path d="M18.50 11.00L18.50 13.50" fill="none" stroke="currentColor" stroke-width="1.750" stroke-linecap="round" stroke-linejoin="round"/><path d="M17.00 5.50L20.00 5.50C20.41 5.50 20.75 5.84 20.75 6.25L20.75 10.25C20.75 10.66 20.41 11.00 20.00 11.00L17.00 11.00C16.59 11.00 16.25 10.66 16.25 10.25L16.25 6.25C16.25 5.84 16.59 5.50 17.00 5.50Z" fill="none" stroke="currentColor" stroke-width="1.750" stroke-linecap="round" stroke-linejoin="round"/></svg>
