<svg xmlns="http://www.w3.org/2000/svg" viewBox="0 0 512 512"><rect width="512" height="512" rx="120" fill="#13213a"/><polygon points="91,300 256,395 256,413 91,318" fill="#1b3358"/><polygon points="256,395 421,300 421,318 256,413" fill="#22406b"/><polygon points="256,205 421,300 256,395 91,300" fill="#2a4b7c"/><polygon points="91,230 256,325 256,343 91,248" fill="#274d86"/><polygon points="256,325 421,230 421,248 256,343" fill="#2f5ea0"/><polygon points="256,135 421,230 256,325 91,230" fill="#3b6bb5"/><polygon points="91,160 256,255 256,273 91,178" fill="#5f8fd6"/><polygon points="256,255 421,160 421,178 256,273" fill="#7aa6e8"/><polygon points="256,65 421,160 256,255 91,160" fill="#8db8ff"/><circle cx="282" cy="299" r="13" fill="#2bbf86"/><path d="M294 299 L420 299" stroke="#f4f7fc" stroke-width="5" stroke-dasharray="3 9" stroke-linecap="round"/><rect x="420" y="285" width="44" height="28" rx="8" fill="#f4f7fc"/><circle cx="282" cy="229" r="13" fill="#f5b54a"/><path d="M294 229 L420 229" stroke="#f4f7fc" stroke-width="5" stroke-dasharray="3 9" stroke-linecap="round"/><rect x="420" y="215" width="44" height="28" rx="8" fill="#f4f7fc"/><circle cx="282" cy="159" r="13" fill="#f05a6e"/><path d="M294 159 L420 159" stroke="#f4f7fc" stroke-width="5" stroke-dasharray="3 9" stroke-linecap="round"/><rect x="420" y="145" width="44" height="28" rx="8" fill="#f4f7fc"/></svg>