<svg xmlns="http://www.w3.org/2000/svg" viewBox="0 0 512 512"><rect x="4" y="4" width="504" height="504" rx="116" fill="#ffffff" stroke="#ece7df" stroke-width="8"/><polygon points="200.0,122.0 345.5,206.0 200.0,290.0 54.5,206.0" fill="#c9d6f6"/><polygon points="54.5,206.0 200.0,290.0 200.0,458.0 54.5,374.0" fill="#4f74d6"/><polygon points="345.5,206.0 200.0,290.0 200.0,458.0 345.5,374.0" fill="#3c5fbf"/><path d="M273 282 L300 220" stroke="#26231f" stroke-width="5" stroke-dasharray="4 8"/><circle cx="344" cy="168" r="100" fill="#fff" stroke="#26231f" stroke-width="20"/><rect x="282" y="102" width="38" height="38" rx="8" fill="#e8866a"/><rect x="326" y="102" width="38" height="38" rx="8" fill="#79b39a"/><rect x="370" y="102" width="38" height="38" rx="8" fill="#e7bf5f"/><rect x="282" y="146" width="38" height="38" rx="8" fill="#79b39a"/><rect x="326" y="146" width="38" height="38" rx="8" fill="#e8866a"/><rect x="370" y="146" width="38" height="38" rx="8" fill="#4f74d6"/><rect x="282" y="190" width="38" height="38" rx="8" fill="#e7bf5f"/><rect x="326" y="190" width="38" height="38" rx="8" fill="#e8866a"/><rect x="370" y="190" width="38" height="38" rx="8" fill="#79b39a"/><path d="M272 244 L226 300" stroke="#26231f" stroke-width="0" stroke-linecap="round"/><path d="M414 238 L456 280" stroke="#26231f" stroke-width="30" stroke-linecap="round"/></svg>